<svg xmlns="http://www.w3.org/2000/svg" viewBox="0 0 995.35 210.38"><defs><style>.cls-1{fill:#f60;}.cls-1,.cls-2{fill-rule:evenodd;}.cls-2,.cls-3{fill:#202020;}.cls-4{fill:#1fb79b;}</style></defs><title>Asset 44100</title><g id="Layer_2" data-name="Layer 2"><g id="Layer_1-2" data-name="Layer 1"><path class="cls-1" d="M59.55,20.2A20.84,20.84,0,1,1,40.3,33.06,20.84,20.84,0,0,1,59.55,20.2Z"/><path class="cls-1" d="M59.55,79.55H27.67V67.71a4.18,4.18,0,0,1,4.17-4.17H87.26a4.17,4.17,0,0,1,4.17,4.17V79.55Z"/><path class="cls-2" d="M59.55,68.06l2.86,2.08,2.86,2.08-2.18,6.72H56l-2.18-6.72,2.86-2.08Z"/><path class="cls-2" d="M59.55,81.93H56.83l-6.19,30.22,8.91,11.15,8.92-11.15-6.2-30.22Z"/><path class="cls-2" d="M74.94,117.1a59.55,59.55,0,1,0-30.78,0V105.56a48.5,48.5,0,1,1,30.78,0Z"/><path class="cls-3" d="M166.07,50.21H140.15V38.78h48L160.51,82.23H188V93.67H138.51Z"/><path class="cls-3" d="M194.16,66.11c0-15.9,12.31-28.64,27.12-28.64,7.84,0,13.83,2.83,17.86,7.52V38.78H253.3V93.67H240.12l-.32-7.08c-4.14,5.12-10.35,8.17-18.52,8.17C206.47,94.76,194.16,82.12,194.16,66.11Zm45.42,0A15.63,15.63,0,1,0,224,81.91,15.53,15.53,0,0,0,239.58,66.11Z"/><path class="cls-3" d="M268.11,38.78h14.05v5a20.67,20.67,0,0,1,14.7-6.1c11,0,19.71,9,19.71,20.47V93.67H302.41V59.91a9.58,9.58,0,0,0-9.91-9.8c-5.88,0-10.24,4.24-10.34,9.8V93.67H268.11Z"/><path class="cls-3" d="M328.65,106.3l8.93-8.93a21.07,21.07,0,0,0,17.54,9.8c9.26,0,16.33-6.64,16.33-16.77V87.13c-3.92,4.47-9.58,7.08-17.09,7.08-16,0-28.1-12.2-28.1-28S338.46,37.69,354,37.69c7.73,0,13.5,2.83,17.42,7.41V38.78h14.27V90.4c0,17.75-13,29.41-30.17,29.41C345.75,119.81,334.86,115.34,328.65,106.3Zm43.24-40.08A15.73,15.73,0,0,0,356.1,50.43a15.79,15.79,0,0,0,0,31.58A15.8,15.8,0,0,0,371.89,66.22Z"/><path class="cls-3" d="M399.33,20.92a8.28,8.28,0,1,1,8.28,8.17A8.25,8.25,0,0,1,399.33,20.92Zm1.31,17.86h13.94V93.67H400.64Z"/><path class="cls-3" d="M425.9,66.11c0-15.9,12.31-28.64,27.12-28.64,7.84,0,13.83,2.83,17.86,7.52V38.78H485V93.67H471.86l-.32-7.08c-4.14,5.12-10.35,8.17-18.52,8.17C438.21,94.76,425.9,82.12,425.9,66.11Zm45.42,0a15.63,15.63,0,1,0-15.58,15.8A15.53,15.53,0,0,0,471.32,66.11Z"/><path class="cls-3" d="M526.85,66.11c0-15.9,12.31-28.64,27.12-28.64,7.84,0,13.83,2.83,17.86,7.52V38.78H586V93.67H572.81l-.32-7.08c-4.14,5.12-10.35,8.17-18.52,8.17C539.16,94.76,526.85,82.12,526.85,66.11Zm45.42,0a15.63,15.63,0,1,0-15.58,15.8A15.53,15.53,0,0,0,572.27,66.11Z"/><path class="cls-3" d="M595.13,66.22c0-15.9,12.53-28.53,29.08-28.53a29.28,29.28,0,0,1,11.66,2.4V55.88a15,15,0,0,0-11.66-5.34,15.3,15.3,0,0,0-15.46,15.68,15.51,15.51,0,0,0,27.12,10.35V92.36a29.28,29.28,0,0,1-11.66,2.4C607.66,94.76,595.13,82.12,595.13,66.22Z"/><path class="cls-3" d="M644,66.11c0-15.9,12.31-28.64,27.12-28.64C679,37.47,685,40.3,689,45V38.78h14.16V93.67H690l-.32-7.08c-4.14,5.12-10.35,8.17-18.52,8.17C656.34,94.76,644,82.12,644,66.11Zm45.42,0a15.63,15.63,0,1,0-15.58,15.8A15.53,15.53,0,0,0,689.45,66.11Z"/><path class="cls-3" d="M712.31,66.11c0-15.9,12.09-28.64,27.45-28.64,6.75,0,13.29,2.51,17.53,7.52V9.81h14.16V93.67H758.27L758,86.59c-4.14,5.12-10.57,8.17-18.19,8.17C724.4,94.76,712.31,82.12,712.31,66.11Zm45.53,0a15.69,15.69,0,1,0-31.37,0c0,9,6.86,16.12,15.68,16.12A15.79,15.79,0,0,0,757.84,66.11Z"/><path class="cls-3" d="M839.62,68.73H796.39c1.08,8.93,7.4,14.59,15.46,14.59a16,16,0,0,0,14-7.95l11.33,4.68c-4.47,9-13.73,14.71-25.27,14.71-17.43,0-29.41-12.64-29.41-28.54s12.2-28.53,29-28.53c15.8,0,28,11.22,28.21,28ZM797.8,58h26.9c-2.29-5.56-6.64-9-13.07-9A14.35,14.35,0,0,0,797.8,58Z"/><path class="cls-3" d="M850.83,38.78H865v5.44a17,17,0,0,1,13.29-6.53c6.21,0,11.87,3.27,15.68,8.6a19.11,19.11,0,0,1,16.34-8.6c11.65,0,20.25,9.26,20.25,21.24V93.67H916.4V60c0-5.45-3.81-9.7-9.15-9.7-5.77,0-9.48,4.69-9.48,10.35v33H883.62V60c0-5.45-3.82-9.7-9.37-9.7S865,55,865,60.67v33H850.83Z"/><path class="cls-3" d="M995.35,38.78l-32,79.94H948.74L958.87,93,936.65,38.78h15.46l14.16,37.68,14.05-37.68Z"/><path class="cls-2" d="M50.67,54.54c-.52-.51-.34-1-.17-1.12s-.09.06.12-.1.78,0,1.14.34c3.19,3.06,12.4,3.06,15.59,0,.36-.35.9-.52,1.13-.34s-.08,0,.13.1.34.61-.18,1.12c-3.74,3.76-14,3.76-17.76,0Z"/><path class="cls-3" d="M29.25,164.75v35.73H24.19V186.34a29.15,29.15,0,0,1-10.46,2.19q-6.54,0-10.13-3.16t-3.6-9V164.75H5v11a7.74,7.74,0,0,0,2.43,6.13Q9.84,184,14.29,184a23.89,23.89,0,0,0,9.9-2.24V164.75Z"/><path class="cls-3" d="M57.8,175.93q3,2.74,3,8.21v16.34H56.14V196.9a7.76,7.76,0,0,1-3.49,2.89,13.44,13.44,0,0,1-5.39,1A11.27,11.27,0,0,1,40,198.59a7,7,0,0,1-2.73-5.77,7.12,7.12,0,0,1,2.6-5.74c1.74-1.45,4.49-2.17,8.27-2.17h7.76v-1a6.23,6.23,0,0,0-1.84-4.85,7.76,7.76,0,0,0-5.41-1.68,14.32,14.32,0,0,0-4.7.79,12,12,0,0,0-3.87,2.12l-2-3.68a15,15,0,0,1,5-2.58,21,21,0,0,1,6.17-.89Q54.81,173.17,57.8,175.93Zm-4.87,19.83a7.19,7.19,0,0,0,3-3.55v-3.78H48.33q-6.22,0-6.22,4.19a3.76,3.76,0,0,0,1.58,3.21A7.25,7.25,0,0,0,48.08,197,9.14,9.14,0,0,0,52.93,195.76Z"/><path class="cls-3" d="M97.13,196.19v10.56h-4.6v-6.27H69.92v6.27H65.28V196.19h1.43q2.6-.15,3.57-3.68a49.67,49.67,0,0,0,1.33-9.95l.4-9.13H93v22.76Zm-21.87-4.82a8.32,8.32,0,0,1-2.33,4.82H88.09V177.71H76.35l-.25,5.21A60.41,60.41,0,0,1,75.26,191.37Z"/><path class="cls-3" d="M127.19,193a6.43,6.43,0,0,1-2.68,5.52q-2.69,1.94-8,1.94h-13v-27h12.55a13.33,13.33,0,0,1,7.5,1.81,5.81,5.81,0,0,1,2.71,5.13,6,6,0,0,1-1.15,3.7,7.07,7.07,0,0,1-3.19,2.37Q127.2,187.78,127.19,193Zm-18.89-8h7.35a7.44,7.44,0,0,0,4.27-1,3.4,3.4,0,0,0,1.45-3c0-2.58-1.91-3.88-5.72-3.88H108.3Zm12.46,10.67a3.31,3.31,0,0,0,1.53-3,3.58,3.58,0,0,0-1.41-3.11,7.47,7.47,0,0,0-4.41-1H108.3v8.12h7.86A8.68,8.68,0,0,0,120.76,195.73Z"/><path class="cls-3" d="M153.09,175.93q3,2.74,3,8.21v16.34h-4.65V196.9a7.79,7.79,0,0,1-3.5,2.89,13.35,13.35,0,0,1-5.38,1,11.27,11.27,0,0,1-7.27-2.19,7.55,7.55,0,0,1-.13-11.51c1.74-1.45,4.49-2.17,8.27-2.17h7.76v-1a6.26,6.26,0,0,0-1.84-4.85,7.77,7.77,0,0,0-5.41-1.68,14.27,14.27,0,0,0-4.7.79,12.12,12.12,0,0,0-3.88,2.12l-2-3.68a15,15,0,0,1,5-2.58,21.13,21.13,0,0,1,6.18-.89Q150.1,173.17,153.09,175.93Zm-4.87,19.83a7.24,7.24,0,0,0,3-3.55v-3.78h-7.56q-6.23,0-6.22,4.19a3.76,3.76,0,0,0,1.58,3.21,7.25,7.25,0,0,0,4.39,1.18A9.16,9.16,0,0,0,148.22,195.76Z"/><path class="cls-3" d="M186.29,174.91a12.45,12.45,0,0,1,4.87,4.84,15.57,15.57,0,0,1,0,14.42,12.42,12.42,0,0,1-4.87,4.88,14.29,14.29,0,0,1-7,1.73,12.55,12.55,0,0,1-5.34-1.12,11.22,11.22,0,0,1-4.11-3.27v14h-4.89V173.43h4.69v4.28a10.45,10.45,0,0,1,4.13-3.39,13,13,0,0,1,5.52-1.15A14.19,14.19,0,0,1,186.29,174.91Zm-2.78,20.39a8.69,8.69,0,0,0,3.27-3.37,11,11,0,0,0,0-10,8.48,8.48,0,0,0-3.27-3.34,9.33,9.33,0,0,0-4.67-1.17,9,9,0,0,0-4.62,1.2A8.68,8.68,0,0,0,171,182a10,10,0,0,0-1.2,4.95,10.24,10.24,0,0,0,1.18,5,8.46,8.46,0,0,0,3.26,3.37,9.65,9.65,0,0,0,9.32,0Z"/><path class="cls-3" d="M218,175.93q3,2.74,3,8.21v16.34h-4.65V196.9a7.76,7.76,0,0,1-3.49,2.89,13.44,13.44,0,0,1-5.39,1,11.27,11.27,0,0,1-7.27-2.19,7,7,0,0,1-2.73-5.77,7.12,7.12,0,0,1,2.6-5.74c1.74-1.45,4.49-2.17,8.27-2.17h7.76v-1a6.26,6.26,0,0,0-1.84-4.85,7.77,7.77,0,0,0-5.41-1.68,14.27,14.27,0,0,0-4.7.79,12.12,12.12,0,0,0-3.88,2.12l-2-3.68a15.08,15.08,0,0,1,5-2.58,21.13,21.13,0,0,1,6.18-.89Q215,173.17,218,175.93Zm-4.87,19.83a7.24,7.24,0,0,0,3-3.55v-3.78h-7.56q-6.22,0-6.22,4.19a3.76,3.76,0,0,0,1.58,3.21,7.25,7.25,0,0,0,4.39,1.18A9.14,9.14,0,0,0,213.14,195.76Z"/><path class="cls-3" d="M248.07,175.93q3,2.74,3,8.21v16.34h-4.65V196.9a7.76,7.76,0,0,1-3.49,2.89,13.44,13.44,0,0,1-5.39,1,11.27,11.27,0,0,1-7.27-2.19,7,7,0,0,1-2.73-5.77,7.12,7.12,0,0,1,2.6-5.74c1.74-1.45,4.49-2.17,8.27-2.17h7.76v-1a6.23,6.23,0,0,0-1.84-4.85,7.76,7.76,0,0,0-5.41-1.68,14.32,14.32,0,0,0-4.7.79,12,12,0,0,0-3.87,2.12l-2.05-3.68a15,15,0,0,1,5-2.58,21.06,21.06,0,0,1,6.17-.89Q245.08,173.17,248.07,175.93Zm-4.87,19.83a7.19,7.19,0,0,0,3-3.55v-3.78H238.6q-6.22,0-6.22,4.19a3.76,3.76,0,0,0,1.58,3.21,7.25,7.25,0,0,0,4.39,1.18A9.14,9.14,0,0,0,243.2,195.76Z"/><path class="cls-3" d="M290.51,200.48l-7.81-10.36-7.91,10.36h-5.46L280,186.64l-10.16-13.21h5.46l7.45,9.74,7.4-9.74h5.36L285.3,186.64l10.77,13.84Z"/><path class="cls-3" d="M319.5,174.93a13.08,13.08,0,0,1,5.13,4.9,14.56,14.56,0,0,1,0,14.24A13.22,13.22,0,0,1,319.5,199a16.06,16.06,0,0,1-14.7,0,13.22,13.22,0,0,1-5.13-4.93,14.56,14.56,0,0,1,0-14.24,13.08,13.08,0,0,1,5.13-4.9,16.23,16.23,0,0,1,14.7,0Zm-13.78,4.34a9.11,9.11,0,0,0-3.11,5.95h19.08a9.11,9.11,0,0,0-3.11-5.95,10.42,10.42,0,0,0-12.86,0Zm12.86,15.36a9.11,9.11,0,0,0,3.11-5.94H302.61a9.05,9.05,0,0,0,3.14,5.94,10.38,10.38,0,0,0,12.83,0Z"/><path class="cls-3" d="M353.39,177.71h-15v22.77h-4.9v-27h19.91Z"/><path class="cls-3" d="M382.53,189h-5.25v11.44h-4.9V189h-5.26l-7.45,11.44h-5.82l9.29-14-8.58-13.06h5.21l7.3,11.43h5.31V173.43h4.9v11.43h5.3l7.3-11.43h5.26l-8.58,13.11,9.29,13.94H390Z"/><path class="cls-3" d="M412.08,200.58v9.8h-4.95v-9.8l-11.84-27.15h5.16l9.29,21.64,9.49-21.64H424Z"/><path class="cls-3" d="M441,200.58v9.8h-5v-9.8l-11.84-27.15h5.16l9.28,21.64,9.5-21.64h4.74Z"/><path class="cls-3" d="M479.71,173.43v27h-4.9V177.71H463.17l-.3,6a65.26,65.26,0,0,1-1,9.11,14.32,14.32,0,0,1-2.35,5.84,5.34,5.34,0,0,1-4.54,2.19,11.75,11.75,0,0,1-3-.45l.3-4.14a5.57,5.57,0,0,0,1.23.15,3.3,3.3,0,0,0,3.06-1.78,11.43,11.43,0,0,0,1.33-4.24q.3-2.44.56-7l.46-10Z"/><path class="cls-3" d="M492.7,194.79a3.43,3.43,0,0,1,.94,2.47,6.06,6.06,0,0,1-.18,1.48c-.12.48-.34,1.21-.68,2.2l-2.4,7.09h-3.22l1.89-7.6a3.21,3.21,0,0,1-1.56-1.2,3.68,3.68,0,0,1,.39-4.47,3.29,3.29,0,0,1,2.45-1A3.11,3.11,0,0,1,492.7,194.79Z"/><path class="cls-3" d="M515.33,164.75h5.06v27.56l21.13-27.56h4.69v35.73h-5V173L520,200.48h-4.7Z"/><path class="cls-3" d="M577.91,174.91a12.45,12.45,0,0,1,4.87,4.84,15.65,15.65,0,0,1,0,14.42,12.42,12.42,0,0,1-4.87,4.88,14.33,14.33,0,0,1-7,1.73,12.54,12.54,0,0,1-5.33-1.12,11.14,11.14,0,0,1-4.11-3.27v14h-4.9V173.43h4.7v4.28a10.38,10.38,0,0,1,4.13-3.39,13,13,0,0,1,5.51-1.15A14.23,14.23,0,0,1,577.91,174.91Zm-2.78,20.39a8.73,8.73,0,0,0,3.26-3.37,10.93,10.93,0,0,0,0-10,8.52,8.52,0,0,0-3.26-3.34,9.33,9.33,0,0,0-4.67-1.17,9,9,0,0,0-4.62,1.2,8.68,8.68,0,0,0-3.27,3.34,10,10,0,0,0-1.2,4.95,10.24,10.24,0,0,0,1.18,5,8.46,8.46,0,0,0,3.26,3.37,9.65,9.65,0,0,0,9.32,0Z"/><path class="cls-3" d="M606.62,174.91a13.26,13.26,0,0,1,5.23,5,14.36,14.36,0,0,1,0,14.24,13.26,13.26,0,0,1-5.23,5,15.62,15.62,0,0,1-7.48,1.78,17.66,17.66,0,0,1-6.46-1.12,13,13,0,0,1-4.87-3.27l2.86-2.85a11.29,11.29,0,0,0,8.26,3.21,10.46,10.46,0,0,0,6.79-2.27,9.14,9.14,0,0,0,3.37-5.95H595.52V185H609a9.14,9.14,0,0,0-3.42-5.69,10.39,10.39,0,0,0-6.64-2.17,11.29,11.29,0,0,0-8.26,3.27l-2.86-2.81a12.73,12.73,0,0,1,4.9-3.32,17.68,17.68,0,0,1,6.43-1.12A15.63,15.63,0,0,1,606.62,174.91Z"/><path class="cls-3" d="M635.66,174.91a13.2,13.2,0,0,1,5.23,5,14.36,14.36,0,0,1,0,14.24,13.2,13.2,0,0,1-5.23,5,15.62,15.62,0,0,1-7.48,1.78,17.69,17.69,0,0,1-6.46-1.12,13,13,0,0,1-4.87-3.27l2.86-2.85A11.31,11.31,0,0,0,628,196.8a10.45,10.45,0,0,0,6.78-2.27,9.1,9.1,0,0,0,3.37-5.95H624.56V185H638a9.14,9.14,0,0,0-3.42-5.69A10.38,10.38,0,0,0,628,177.1a11.31,11.31,0,0,0-8.27,3.27l-2.86-2.81a12.73,12.73,0,0,1,4.9-3.32,17.68,17.68,0,0,1,6.43-1.12A15.63,15.63,0,0,1,635.66,174.91Z"/><path class="cls-3" d="M677,196.19v10.56h-4.59v-6.27H649.82v6.27h-4.64V196.19h1.42q2.61-.15,3.58-3.68a50.41,50.41,0,0,0,1.33-9.95l.4-9.13h21v22.76Zm-21.87-4.82a8.31,8.31,0,0,1-2.32,4.82H668V177.71H656.25l-.25,5.21A58.75,58.75,0,0,1,655.15,191.37Z"/><path class="cls-3" d="M695.76,200.58v9.8h-5v-9.8L679,173.43h5.16l9.29,21.64,9.49-21.64h4.75Z"/><path class="cls-3" d="M712.7,173.43h4.9v19.7l16.59-19.7h4.44v27h-4.9v-19.7l-16.54,19.7H712.7Zm6.79-5.34a6.69,6.69,0,0,1-2.15-5.23h3.32a4.13,4.13,0,0,0,1.3,3,4.8,4.8,0,0,0,3.35,1.15,4.86,4.86,0,0,0,3.36-1.15,4,4,0,0,0,1.33-3h3.42a6.59,6.59,0,0,1-2.19,5.23,8.81,8.81,0,0,1-5.87,1.81A8.66,8.66,0,0,1,719.49,168.09Z"/><path class="cls-3" d="M768,177.71H753v22.77h-4.9v-27H768Z"/><path class="cls-3" d="M787.7,174.91a13.2,13.2,0,0,1,5.23,5,14.36,14.36,0,0,1,0,14.24,13.2,13.2,0,0,1-5.23,5,15.62,15.62,0,0,1-7.48,1.78,17.6,17.6,0,0,1-6.45-1.12,13,13,0,0,1-4.88-3.27l2.86-2.85A11.31,11.31,0,0,0,780,196.8a10.48,10.48,0,0,0,6.79-2.27,9.19,9.19,0,0,0,3.37-5.95H776.6V185h13.47a9.14,9.14,0,0,0-3.42-5.69A10.36,10.36,0,0,0,780,177.1a11.31,11.31,0,0,0-8.27,3.27l-2.86-2.81a12.73,12.73,0,0,1,4.9-3.32,17.68,17.68,0,0,1,6.43-1.12A15.63,15.63,0,0,1,787.7,174.91Z"/><path class="cls-3" d="M816.74,174.91a13.2,13.2,0,0,1,5.23,5,14.36,14.36,0,0,1,0,14.24,13.2,13.2,0,0,1-5.23,5,15.62,15.62,0,0,1-7.48,1.78,17.6,17.6,0,0,1-6.45-1.12,13,13,0,0,1-4.88-3.27l2.86-2.85a11.33,11.33,0,0,0,8.27,3.21,10.48,10.48,0,0,0,6.79-2.27,9.19,9.19,0,0,0,3.37-5.95H805.64V185h13.48a9.23,9.23,0,0,0-3.42-5.69,10.39,10.39,0,0,0-6.64-2.17,11.31,11.31,0,0,0-8.27,3.27l-2.86-2.81a12.73,12.73,0,0,1,4.9-3.32,17.72,17.72,0,0,1,6.43-1.12A15.63,15.63,0,0,1,816.74,174.91Z"/><path class="cls-3" d="M865.05,176a12,12,0,0,1,4.62,4.67,13.85,13.85,0,0,1,1.66,6.81,13.67,13.67,0,0,1-1.76,7,12.24,12.24,0,0,1-5,4.72,15.42,15.42,0,0,1-7.28,1.68q-6.89,0-10.64-4.72c-2.5-3.14-3.75-7.58-3.75-13.29q0-8.33,3.42-13t10.46-6.25l12.35-2.76.72,4.49-11.38,2.45q-5.31,1.17-7.91,4t-3,8.07a11.87,11.87,0,0,1,4.49-4,13.2,13.2,0,0,1,6.17-1.43A13.41,13.41,0,0,1,865.05,176Zm-3,19.6a8.22,8.22,0,0,0,3.14-3.24,9.72,9.72,0,0,0,1.13-4.72,8.92,8.92,0,1,0-17.82,0,9.62,9.62,0,0,0,1.15,4.72,8.42,8.42,0,0,0,3.19,3.24,9.65,9.65,0,0,0,9.21,0Z"/><path class="cls-3" d="M889.91,200.58v9.8h-5v-9.8l-11.84-27.15h5.16l9.29,21.64,9.49-21.64h4.75Z"/><path class="cls-3" d="M927.16,177.71h-9.9v22.77h-4.9V177.71h-9.9v-4.28h24.7Z"/><path class="cls-3" d="M946.84,174.91a13.2,13.2,0,0,1,5.23,5,14.36,14.36,0,0,1,0,14.24,13.2,13.2,0,0,1-5.23,5,15.62,15.62,0,0,1-7.48,1.78,17.69,17.69,0,0,1-6.46-1.12,13,13,0,0,1-4.87-3.27l2.86-2.85a11.31,11.31,0,0,0,8.27,3.21,10.45,10.45,0,0,0,6.78-2.27,9.1,9.1,0,0,0,3.37-5.95H935.74V185h13.47a9.14,9.14,0,0,0-3.42-5.69,10.38,10.38,0,0,0-6.63-2.17,11.31,11.31,0,0,0-8.27,3.27L928,177.56a12.73,12.73,0,0,1,4.9-3.32,17.68,17.68,0,0,1,6.43-1.12A15.63,15.63,0,0,1,946.84,174.91Z"/><path class="cls-3" d="M975.88,174.91a13.2,13.2,0,0,1,5.23,5,14.36,14.36,0,0,1,0,14.24,13.2,13.2,0,0,1-5.23,5,15.62,15.62,0,0,1-7.48,1.78,17.6,17.6,0,0,1-6.45-1.12,13,13,0,0,1-4.88-3.27l2.86-2.85a11.31,11.31,0,0,0,8.27,3.21,10.5,10.5,0,0,0,6.79-2.27,9.13,9.13,0,0,0,3.36-5.95H964.78V185h13.47a9.14,9.14,0,0,0-3.42-5.69,10.36,10.36,0,0,0-6.63-2.17,11.31,11.31,0,0,0-8.27,3.27l-2.86-2.81a12.73,12.73,0,0,1,4.9-3.32,17.68,17.68,0,0,1,6.43-1.12A15.63,15.63,0,0,1,975.88,174.91Z"/><path class="cls-3" d="M989.69,199.84a3.27,3.27,0,0,1,0-4.65,3.27,3.27,0,0,1,2.39-.94,3.12,3.12,0,0,1,2.35.94,3.23,3.23,0,0,1,.92,2.33,3.21,3.21,0,0,1-3.27,3.26A3.27,3.27,0,0,1,989.69,199.84Zm-.52-35.09h5.77l-1,24.45h-3.88Z"/><path class="cls-4" d="M992.83,143.15H2.49a2.49,2.49,0,1,1,0-5H992.83a2.49,2.49,0,1,1,0,5Z"/></g></g></svg>